<svg xmlns="http://www.w3.org/2000/svg" fill="none" viewBox="0 0 520 587">
  <style>
    #bg {
      fill: #f5f5f5;
    }
    #fg {
      fill: #111113;
    }
    @media (prefers-color-scheme: dark) {
      #bg {
        fill: #111113;
      }
      #fg {
        fill: #f5f5f5;
      }
    }
  </style>
  <rect width="520" height="586.25" id="bg" rx="105.286" />
  <path
    id="fg"
    d="m298.787 457.944-19.793-24.426c-10.108 4.492-20.777 8.001-32.008 10.528-11.23 2.808-23.022 4.212-35.376 4.212-21.899 0-42.255-3.791-61.066-11.371-18.811-7.862-35.376-18.671-49.695-32.429-14.038-14.038-25.129-30.182-33.27-48.431-7.862-18.531-11.793-38.465-11.793-59.803 0-21.338 3.93-41.132 11.792-59.382 8.142-18.53 19.233-34.674 33.271-48.431 14.319-14.039 30.884-24.848 49.695-32.429 18.811-7.861 39.167-11.792 61.066-11.792 21.9 0 42.255 3.931 61.066 11.792 19.092 7.581 35.657 18.39 49.696 32.429 14.319 13.757 25.409 29.901 33.27 48.431 7.861 18.25 11.792 38.044 11.792 59.382 0 21.057-4.071 40.851-12.213 59.382-7.861 18.249-18.671 34.253-32.428 48.01l29.48 36.64-53.486 17.688Zm-87.177-65.699c5.615 0 10.81-.421 15.583-1.263 5.053-1.123 9.826-2.667 14.319-4.633l-31.586-39.588 53.064-17.688 21.9 26.954c6.457-8.142 11.371-17.267 14.74-27.375 3.65-10.107 5.475-20.917 5.475-32.428 0-13.757-2.387-26.392-7.16-37.903-4.773-11.792-11.371-21.9-19.794-30.323-8.423-8.703-18.249-15.442-29.48-20.215-11.231-5.053-23.584-7.58-37.061-7.58-13.196 0-25.549 2.527-37.061 7.58-11.23 4.773-21.057 11.512-29.48 20.215-8.142 8.423-14.6 18.531-19.373 30.323-4.773 11.511-7.159 24.146-7.159 37.903 0 13.477 2.386 26.111 7.159 37.903 4.773 11.792 11.231 22.04 19.373 30.744 8.423 8.423 18.25 15.161 29.48 20.215 11.512 4.773 23.865 7.159 37.061 7.159Zm206.977 55.591c-9.265 0-17.267-3.369-24.005-10.107-6.739-6.738-10.108-14.74-10.108-24.005 0-9.546 3.369-17.688 10.108-24.427 6.738-6.738 14.74-10.107 24.005-10.107 9.265 0 17.267 3.369 24.005 10.107 6.739 6.739 10.108 14.881 10.108 24.427 0 9.265-3.369 17.267-10.108 24.005-6.738 6.738-14.74 10.107-24.005 10.107Z"
  />
</svg>
